<?xml version="1.0" encoding="utf-8"?>
<!-- Generator: Adobe Illustrator 25.3.1, SVG Export Plug-In . SVG Version: 6.00 Build 0)  -->
<svg version="1.1" id="图层_1" xmlns="http://www.w3.org/2000/svg" xmlns:xlink="http://www.w3.org/1999/xlink" x="0px" y="0px"
	 viewBox="0 0 287.4 85" style="enable-background:new 0 0 287.4 85;" xml:space="preserve">
<style type="text/css">
	.st0{fill:#009FE8;stroke:#231815;stroke-width:0.1031;stroke-miterlimit:10;}
	.st1{fill:#00A0E9;}
	.st2{fill:#E4007F;}
</style>
<g>
	<path class="st0" d="M58,29.7l-0.1-0.1C58,29.6,58,29.7,58,29.7L58,29.7z"/>
	<path class="st1" d="M129.7,53.1c0,0-0.6,1-1.5,2.4c-1.7,2.5-3.9,4.8-6.5,6.5c-10.7,7.1-25.2,4.2-32.4-6.5l0,0L67.7,23.1l0,0l0,0
		l0,0C61.9,14.5,53,9.2,43.5,7.8c-8.2-1.2-16.9,0.5-24.4,5.5C2.9,24-1.5,45.8,9.2,61.9C17,73.6,30.5,79.1,43.5,77.2
		c5-0.7,9.9-2.5,14.4-5.5c3.4-2.3,6.3-5,8.6-8.1l-7-10.5l-0.1-0.2c-1.8,3.6-4.5,6.7-8,9.1c-10.8,7.1-25.3,4.2-32.4-6.6
		S14.8,30.1,25.6,23s25.3-4.2,32.4,6.6l0,0l0,0l21.4,32.3l0,0l0,0l0,0c5.7,8.7,14.7,13.9,24.2,15.3c3.3,0.5,6.7,0.5,10.1,0
		c5-0.7,9.9-2.5,14.4-5.5c3.4-2.3,6.3-5,8.6-8.1L129.7,53.1z"/>
	<circle class="st1" cx="108.6" cy="42.5" r="11.7"/>
	<path class="st2" d="M199.8,53.1l-0.1-0.2c-1.8,3.6-4.5,6.7-8,9.1c-10.6,7-24.9,4.3-32.1-6.1l0,0l-21.7-32.8l0.1,0.1l-0.2-0.3
		c-5.7-8.6-14.6-13.8-24.1-15.2c-3.3-0.5-6.7-0.5-10,0c-5,0.7-9.9,2.5-14.4,5.5c-3.4,2.3-6.3,5-8.6,8.1l7,10.5l0.1,0.2
		c0.3-0.7,0.7-1.4,1.1-2c0.2-0.4,0.5-0.7,0.7-1c1.6-2.3,3.7-4.4,6.2-6c10.6-7.1,24.9-4.3,32.1,6.2l0,0l0.2,0.2l0.1,0.1l0.1,0.1
		l21.4,32.2l0,0c5.7,8.7,14.7,13.9,24.2,15.3c3.3,0.5,6.7,0.5,10.1,0c5-0.7,9.9-2.5,14.4-5.5c3.4-2.3,6.3-5,8.6-8.1L199.8,53.1z"/>
	<path class="st1" d="M157.7,31.9l1.5-2.3c0,0,0,0,0-0.1c1.7-2.5,3.9-4.8,6.5-6.5c10.7-7.1,25.2-4.2,32.4,6.5l0,0l21.5,32.4l0,0l0,0
		l0,0c5.7,8.7,14.7,13.9,24.2,15.3c8.2,1.2,16.9-0.5,24.4-5.5c16.1-10.7,20.5-32.5,9.8-48.6c-7.7-11.7-21.3-17.2-34.3-15.3
		c-5,0.7-9.9,2.5-14.4,5.5c-3.4,2.3-6.3,5-8.6,8.1l7,10.5l0.1,0.2c1.8-3.6,4.5-6.7,8-9.1c10.8-7.1,25.3-4.2,32.4,6.6
		s4.2,25.3-6.6,32.4c-10.8,7.1-25.3,4.2-32.4-6.6l0,0l0,0L208,23.1l0,0l0,0l0,0c-5.7-8.7-14.7-13.9-24.2-15.3
		c-3.3-0.5-6.7-0.5-10.1,0c-5,0.7-9.9,2.5-14.4,5.5c-3.4,2.3-6.3,5-8.6,8.1L157.7,31.9z"/>
</g>
</svg>
